<?xml version="1.0" encoding="UTF-8" standalone="no"?>
<svg
   width="1280"
   height="720"
   version="1.1"
   id="svg5"
   sodipodi:docname="l0-banner.svg"
   xml:space="preserve"
   inkscape:version="1.3.2 (091e20e, 2023-11-25, custom)"
   xmlns:inkscape="http://www.inkscape.org/namespaces/inkscape"
   xmlns:sodipodi="http://sodipodi.sourceforge.net/DTD/sodipodi-0.dtd"
   xmlns="http://www.w3.org/2000/svg"
   xmlns:svg="http://www.w3.org/2000/svg"><defs
     id="defs5"><style
       id="style1">
      .cls-1 {
        fill: #1d1d1b;
      }

      .cls-1, .cls-2, .cls-3 {
        stroke-width: 0px;
      }

      .cls-2 {
        fill: #29bdef;
      }

      .cls-3 {
        fill: #004283;
      }
    </style></defs><sodipodi:namedview
     id="namedview5"
     pagecolor="#ffffff"
     bordercolor="#000000"
     borderopacity="0.25"
     inkscape:showpageshadow="2"
     inkscape:pageopacity="0.0"
     inkscape:pagecheckerboard="0"
     inkscape:deskcolor="#d1d1d1"
     inkscape:zoom="0.77366582"
     inkscape:cx="366.43728"
     inkscape:cy="184.18805"
     inkscape:window-width="1366"
     inkscape:window-height="697"
     inkscape:window-x="-8"
     inkscape:window-y="-8"
     inkscape:window-maximized="1"
     inkscape:current-layer="svg5" /><g
     id="g8"
     inkscape:label="trademark"
     transform="matrix(0.57842026,0,0,0.57842026,-132.54602,124.48715)"><g
       id="g5"
       transform="translate(-96.12,-94.84)"
       inkscape:label="scada"><path
         class="cls-1"
         d="m 646.09,305.05 3.12,-4.03 c 2.69,2.36 6.07,3.55 9.13,3.55 3.38,0 5.42,-1.5 5.42,-3.55 0,-1.5 -1.07,-2.69 -4.35,-3.44 l -4.78,-1.07 c -5.48,-1.24 -7.79,-3.65 -7.79,-7.41 0,-5 4.14,-8.43 10.69,-8.43 4.46,0 8.54,1.5 11.17,4.19 l -3.28,3.76 c -2.36,-2.15 -5.16,-3.28 -8.22,-3.28 -3.33,0 -5.1,1.4 -5.1,3.38 0,1.45 0.97,2.42 4.46,3.22 l 4.73,1.07 c 5.59,1.24 7.74,3.76 7.74,7.63 0,5.16 -3.97,8.65 -10.85,8.65 -4.73,0 -9.29,-1.61 -12.09,-4.24 z"
         id="path1" /><path
         class="cls-1"
         d="m 674.72,295.11 c 0,-8.27 6.28,-14.45 14.4,-14.45 4.78,0 9.13,2.04 11.82,5.8 l -4.25,3.28 c -2.15,-2.85 -4.73,-4.19 -7.63,-4.19 -4.94,0 -8.81,3.87 -8.81,9.4 0,5.53 4.03,9.45 8.86,9.45 3.22,0 6.07,-1.61 8.11,-4.4 l 4.03,2.95 c -2.63,4.03 -7.09,6.34 -12.19,6.34 -8.27,0 -14.34,-5.96 -14.34,-14.18 z"
         id="path2" /><path
         class="cls-1"
         d="m 706.19,294.95 c 0,-8.27 6.23,-14.29 13.75,-14.29 3.22,0 6.29,1.08 8.38,2.96 v -2.31 h 5.37 v 27.34 h -5.37 v -2.36 c -2.1,1.93 -5.16,3.01 -8.38,3.01 -7.52,0 -13.75,-6.02 -13.75,-14.34 z m 14.45,9.46 c 2.9,0 5.75,-1.24 7.68,-3.6 v -11.66 c -1.94,-2.36 -4.78,-3.6 -7.68,-3.6 -4.94,0 -8.97,3.65 -8.97,9.4 0,5.75 4.03,9.45 8.97,9.45 z"
         id="path3" /><path
         class="cls-1"
         d="m 741.26,294.95 c 0,-8.27 6.23,-14.29 13.75,-14.29 3.22,0 6.29,1.08 8.38,2.96 v -14.61 h 5.37 v 39.65 h -5.37 v -2.36 c -2.1,1.93 -5.16,3.01 -8.38,3.01 -7.52,0 -13.75,-6.02 -13.75,-14.34 z m 14.45,9.46 c 2.9,0 5.75,-1.24 7.68,-3.6 v -11.66 c -1.94,-2.36 -4.78,-3.6 -7.68,-3.6 -4.94,0 -8.97,3.65 -8.97,9.4 0,5.75 4.03,9.45 8.97,9.45 z"
         id="path4" /><path
         class="cls-1"
         d="m 776.33,294.95 c 0,-8.27 6.23,-14.29 13.75,-14.29 3.22,0 6.29,1.08 8.38,2.96 v -2.31 h 5.37 v 27.34 h -5.37 v -2.36 c -2.1,1.93 -5.16,3.01 -8.38,3.01 -7.52,0 -13.75,-6.02 -13.75,-14.34 z m 14.45,9.46 c 2.9,0 5.75,-1.24 7.68,-3.6 v -11.66 c -1.94,-2.36 -4.78,-3.6 -7.68,-3.6 -4.94,0 -8.97,3.65 -8.97,9.4 0,5.75 4.03,9.45 8.97,9.45 z"
         id="path5" /></g><g
       id="g7"
       inkscape:label="argos"><path
         class="cls-3"
         d="m 302.5,107.2 c 0,-22.98 16.43,-39.41 36.51,-39.41 6.84,0 13.09,1.89 18.33,5.82 v -4.07 h 24.73 v 75.34 h -24.73 v -4.07 c -5.24,3.93 -11.49,5.82 -18.33,5.82 -20.07,0 -36.51,-16.44 -36.51,-39.42 z m 40.86,16.43 c 5.24,0 10.18,-2.04 13.96,-6.11 V 96.87 c -3.78,-4.07 -8.73,-6.11 -13.96,-6.11 -9.6,0 -15.85,6.54 -15.85,16.43 0,9.89 6.25,16.44 15.85,16.44 z"
         id="path19" /><path
         class="cls-3"
         d="m 399.48,69.53 h 24.72 v 6.55 c 4.95,-5.53 11.79,-8.29 18.62,-8.29 2.33,0 4.95,0.29 7.71,1.02 l -0.87,22.98 c -2.62,-0.29 -4.8,-0.43 -6.55,-0.43 -7.27,0 -13.96,2.91 -18.91,8.73 v 44.8 H 399.48 V 69.55 Z"
         id="path20" /><path
         class="cls-3"
         d="m 457.35,164.36 14.4,-18.18 c 8.87,6.69 16.29,9.16 23.27,9.16 10.33,0 16.59,-5.53 16.59,-14.11 v -4.95 c -5.53,4.07 -11.79,5.96 -18.91,5.96 -19.93,0 -35.79,-15.56 -35.79,-36.95 0,-21.39 15.85,-37.52 35.93,-37.52 6.98,0 13.23,1.89 18.77,5.96 v -4.22 h 24.72 v 71.71 c 0,23.27 -15.71,37.09 -40.73,37.09 -15.41,0 -29.09,-5.38 -38.25,-13.96 z m 39.85,-44.22 c 5.23,0 10.32,-2.03 14.4,-6.4 V 96.87 c -4.08,-4.36 -9.17,-6.4 -14.4,-6.4 -9.31,0 -15.27,6.54 -15.27,14.83 0,8.29 5.96,14.84 15.27,14.84 z"
         id="path21" /><path
         class="cls-3"
         d="m 549.97,107.2 c 0,-22.83 16.88,-39.41 40.44,-39.41 23.56,0 40.44,16.58 40.44,39.41 0,22.83 -16.87,39.42 -40.44,39.42 -23.57,0 -40.44,-16.73 -40.44,-39.42 z m 40.44,16.43 c 8.73,0 15.41,-6.26 15.41,-16.44 0,-10.18 -6.69,-16.43 -15.41,-16.43 -8.72,0 -15.41,6.25 -15.41,16.43 0,10.18 6.69,16.44 15.41,16.44 z"
         id="path22" /><path
         class="cls-3"
         d="m 640.12,137.01 10.61,-18.62 c 8.73,5.24 17.31,7.85 24.14,7.85 5.38,0 8,-1.6 8,-4.07 0,-1.89 -1.6,-3.34 -6.69,-4.51 l -12.65,-3.06 c -15.27,-3.64 -21.39,-10.61 -21.39,-21.52 0,-15.13 11.93,-25.31 32.43,-25.31 12.51,0 24,3.78 32.14,9.6 L 695.8,95.12 c -8.44,-4.65 -15.85,-6.98 -21.82,-6.98 -4.94,0 -7.27,1.6 -7.27,3.64 0,1.75 1.75,2.91 6.4,4.08 l 12.65,3.05 c 15.56,3.78 21.96,10.62 21.96,22.11 0,15.71 -12.07,25.6 -33.46,25.6 -12.94,0 -25.45,-3.64 -34.17,-9.6 z"
         id="path23" /></g></g><line
     x1="50"
     y1="150"
     x2="200"
     y2="150"
     style="stroke:blue"
     id="line1" /><text
     x="50"
     y="282"
     fill="#0000ff"
     font-size="24px"
     id="text2">Versão 2023</text><text
     x="50"
     y="400"
     fill="#0000ff"
     font-size="18px"
     id="text3">argosscada.com</text><text
     x="50"
     y="430"
     fill="blue"
     font-size="18"
     id="text4">
		© 2012 - 2023 Expansão Serviços e Comércio LTDA. Todos os direitos reservados.
	</text><g
     id="g6"
     transform="translate(827.34659,230.087)"><g
       id="g18"
       transform="matrix(0.57842026,0,0,0.57842026,-55.597756,35.558828)"
       inkscape:label="icon"><path
         class="cls-2"
         d="m 204.61,215.09 h 0.01 c 0,0 0.14,0.08 0.14,0.08 l 0.04,0.02 0.18,0.09 0.18,0.09 0.19,0.09 0.19,0.09 0.2,0.08 v 0 c 0,0 0.18,0.08 0.18,0.08 h 0.02 c 0,0 0.21,0.08 0.21,0.08 l 0.22,0.08 0.22,0.08 0.23,0.07 0.23,0.07 0.41,0.11 h 0.06 c 0,0 0.01,0.02 0.01,0.02 l 0.25,0.06 0.26,0.05 0.46,0.09 h 0.07 c 0,0 0.27,0.05 0.27,0.05 l 0.28,0.04 0.23,0.03 h 0.05 c 0,0 0.01,0 0.01,0 l 0.25,0.02 h 0.04 c 0,0 0.3,0.03 0.3,0.03 l 0.31,0.02 0.31,0.02 h 0.32 c 0,0 0.33,0.01 0.33,0.01 h 0.33 c 0,0 0.33,0 0.33,0 h 0.32 c 0,0 0.32,-0.01 0.32,-0.01 l 0.32,-0.02 0.3,-0.02 0.3,-0.03 h 0.04 c 0,0 0.25,-0.03 0.25,-0.03 h 0.01 c 0,0 0.05,0 0.05,0 l 0.23,-0.03 0.28,-0.04 0.27,-0.04 h 0.07 c 0,0 0.46,-0.1 0.46,-0.1 l 0.25,-0.05 0.25,-0.06 v 0 c 0,0 0.06,-0.02 0.06,-0.02 l 0.41,-0.11 0.23,-0.07 0.23,-0.07 0.22,-0.08 0.21,-0.08 0.22,-0.08 h 0.01 c 0,0 0.18,-0.08 0.18,-0.08 h 0.01 c 0,0 0.2,-0.09 0.2,-0.09 l 0.19,-0.09 0.19,-0.09 0.18,-0.09 0.18,-0.09 0.03,-0.02 0.14,-0.07 h 0.01 c 0,0 0.15,-0.09 0.15,-0.09 v 0 c 0,0 0.16,-0.09 0.16,-0.09 l 0.15,-0.09 0.15,-0.09 h 0.01 c 0,0 0.13,-0.09 0.13,-0.09 l 0.14,-0.09 0.13,-0.1 h 0.01 c 0,0 0.11,-0.09 0.11,-0.09 l 0.11,-0.08 h 0.02 c 0,0 0.11,-0.1 0.11,-0.1 l 0.11,-0.09 0.11,-0.09 0.04,-0.03 0.06,-0.05 0.03,-0.02 0.08,-0.06 v 0 c 0,0 0.08,-0.08 0.08,-0.08 v 0 l 0.08,-0.07 h 0.01 c 0,0 0.08,-0.09 0.08,-0.09 l 0.08,-0.08 0.08,-0.08 0.07,-0.07 0.07,-0.06 0.06,-0.07 v 0 c 0,0 0.05,-0.06 0.05,-0.06 v 0 c 0,0 0.04,-0.05 0.04,-0.05 h 0.01 c 0,0 0.04,-0.07 0.04,-0.07 l 0.04,-0.05 0.04,-0.05 v -0.02 c 0,0 0.03,-0.03 0.03,-0.03 v 0 c 0,0 0.14,-0.25 0.14,-0.25 2.03,-3.47 3.57,-6.69 4.6,-9.66 1.01,-2.91 1.53,-5.6 1.56,-8.04 0.06,-5.22 -1.4,-9.27 -3.73,-12.18 -2.64,-3.29 -6.42,-5.16 -10.37,-5.6 l -1.91,-0.21 v 0 l -1.91,0.21 c -3.94,0.44 -7.73,2.31 -10.37,5.6 -2.33,2.91 -3.79,6.97 -3.73,12.18 0.03,2.44 0.56,5.12 1.57,8.04 1.02,2.96 2.56,6.18 4.59,9.66 l 0.14,0.24 v 0 c 0,0 0.03,0.04 0.03,0.04 v 0.02 c 0,0 0.05,0.05 0.05,0.05 l 0.04,0.05 0.04,0.06 h 0.01 c 0,0 0.04,0.06 0.04,0.06 v 0 c 0,0 0.05,0.06 0.05,0.06 v 0 c 0,0 0.06,0.07 0.06,0.07 l 0.06,0.06 0.07,0.07 0.08,0.08 0.08,0.08 0.09,0.08 v 0 c 0,0 0.08,0.08 0.08,0.08 v 0 l 0.08,0.07 v 0 c 0,0 0.08,0.07 0.08,0.07 l 0.03,0.02 0.06,0.05 0.04,0.03 0.11,0.09 0.11,0.09 0.11,0.09 h 0.02 c 0,0 0.11,0.09 0.11,0.09 l 0.11,0.08 h 0.01 c 0,0 0.14,0.1 0.14,0.1 l 0.13,0.09 0.14,0.09 h 0.01 c 0,0 0.15,0.1 0.15,0.1 l 0.15,0.09 0.16,0.09 v 0 c 0,0 0.15,0.08 0.15,0.08 z"
         id="path6" /><path
         class="cls-2"
         d="m 204.12,163.67 c 1.52,1 2.88,2.25 3.99,3.68 1.69,2.17 2.86,4.78 3.3,7.62 l 0.18,1.18 0.18,-1.18 c 0.44,-2.83 1.61,-5.44 3.3,-7.62 1.12,-1.43 2.47,-2.68 4,-3.68 -0.6,-0.44 -1.24,-0.83 -1.91,-1.17 -1.4,-0.69 -2.96,-1.13 -4.6,-1.25 l -0.96,-0.07 v 0 l -0.96,0.07 c -1.64,0.12 -3.2,0.56 -4.6,1.25 -0.67,0.34 -1.31,0.73 -1.91,1.17 z"
         id="path7" /><path
         class="cls-2"
         d="m 162.27,235.35 c -2.83,-6.62 -4.4,-13.9 -4.4,-21.55 0,-13.32 4.76,-25.54 12.66,-35.03 2.89,-3.47 6.2,-6.58 9.86,-9.25 6.49,-4.74 14.05,-8.08 22.26,-9.6 0.53,-0.35 1.08,-0.66 1.65,-0.94 0.91,-0.45 1.88,-0.82 2.88,-1.1 -1.02,-1.73 -1.86,-3.62 -2.51,-5.64 -0.95,-2.95 -1.47,-6.16 -1.47,-9.5 0,-3.7 0.64,-7.24 1.79,-10.45 1.2,-3.34 2.96,-6.33 5.14,-8.75 l 1.46,-1.63 1.46,1.63 c 2.17,2.42 3.93,5.41 5.14,8.75 1.15,3.21 1.79,6.74 1.79,10.45 0,3.34 -0.52,6.55 -1.47,9.5 -0.65,2.01 -1.49,3.9 -2.5,5.64 1,0.28 1.96,0.65 2.88,1.1 0.56,0.28 1.11,0.59 1.64,0.94 8.21,1.52 15.77,4.87 22.26,9.6 13.65,9.96 22.52,26.08 22.52,44.28 0,7.65 -1.57,14.94 -4.4,21.55 5.12,-9.76 8.18,-19.18 8.18,-40.59 0,-21.41 -9.88,-48.95 -26.3,-70.84 -6.87,-9.15 -14.87,-17.23 -23.78,-23.23 l -7.42,-5.85 -7.43,5.85 c -8.91,6.01 -16.91,14.08 -23.78,23.24 -3.61,4.82 -6.91,9.94 -9.86,15.22 -10.43,18.69 -16.44,39.35 -16.44,55.62 0,21.41 3.05,30.83 8.18,40.59 z"
         id="path8" /><path
         class="cls-2"
         d="m 254.21,247.34 c 0.36,-0.66 0.73,-1.31 1.08,-1.94 -3.45,4.87 -7.67,9.16 -12.49,12.68 -2.09,1.52 -4.29,2.9 -6.58,4.12 0.72,1.41 1.45,2.79 2.21,4.13 0.81,1.1 1.63,2.19 2.48,3.27 l 0.16,0.22 c 0.58,-0.25 1.15,-0.5 1.72,-0.77 38.48,-17.59 63.34,-59.9 63.34,-101.76 0,-7.48 -0.74,-14.79 -2.12,-21.87 -12.73,-16.77 -29.1,-29.52 -49.1,-37.14 15.94,19.53 25.51,44.45 25.51,71.64 0,27.19 -10.25,47.87 -26.23,67.41 z"
         id="path9" /><path
         class="cls-2"
         d="m 214.79,151.04 c 0.82,-2.55 1.27,-5.35 1.27,-8.3 0,-3.27 -0.56,-6.35 -1.55,-9.12 -0.74,-2.06 -1.73,-3.96 -2.91,-5.63 -1.18,1.67 -2.17,3.56 -2.91,5.63 -0.99,2.77 -1.55,5.85 -1.55,9.12 0,2.95 0.45,5.75 1.27,8.3 0.76,2.38 1.85,4.55 3.19,6.44 1.34,-1.89 2.42,-4.06 3.19,-6.44 z"
         id="path10" /><path
         class="cls-2"
         d="m 254.92,108.29 h -0.03 c 0,0 0.02,0 0.03,0 z"
         id="path11" /><path
         class="cls-2"
         d="m 322.85,183.32 c -11.15,42.13 -39.27,72.13 -80.04,86.08 -0.55,0.19 -1.08,0.37 -1.63,0.55 0.53,0.67 1.08,1.34 1.63,2 11.02,13.27 25.01,23.98 40.95,31.12 26.37,-20.76 43.31,-52.97 43.31,-89.14 0,-10.61 -1.49,-20.87 -4.22,-30.61 z"
         id="path12" /><path
         class="cls-2"
         d="m 211.6,286.28 c -6,8.07 -16.72,15.6 -31.21,22.28 -0.53,0.25 -1.08,0.49 -1.62,0.74 h 65.66 c -0.55,-0.24 -1.09,-0.49 -1.62,-0.74 -14.49,-6.69 -25.21,-14.21 -31.21,-22.28 z"
         id="path13" /><path
         class="cls-2"
         d="m 242.8,280.3 c -11.78,-16 -22.19,-38.27 -21.61,-66.65 v -0.52 c 0,0 -0.02,0.04 -0.02,0.04 l -0.13,0.19 -0.1,0.15 -0.03,0.05 -0.09,0.14 -0.03,0.05 -0.09,0.14 -0.04,0.06 -0.09,0.13 -0.04,0.07 -0.09,0.13 -0.04,0.07 -0.08,0.12 -0.05,0.08 -0.08,0.12 -0.06,0.08 -0.08,0.11 -0.06,0.09 -0.07,0.1 -0.07,0.09 -0.06,0.1 -0.07,0.1 -0.06,0.1 -0.08,0.1 -0.06,0.09 -0.08,0.11 -0.06,0.09 -0.08,0.11 -0.14,0.21 -0.05,0.07 -0.1,0.13 -0.04,0.07 -0.09,0.13 -0.15,0.2 -0.15,0.21 -0.03,0.05 -0.11,0.16 -0.03,0.05 -0.11,0.16 -0.03,0.04 -0.12,0.17 -0.03,0.03 -0.12,0.17 -0.15,0.21 -0.02,0.02 -0.13,0.18 v 0.02 c 0,0 -0.15,0.19 -0.15,0.19 l -0.15,0.21 v 0 c 0,0 -0.15,0.21 -0.15,0.21 l -0.15,0.2 h -0.01 c 0,0 -0.14,0.2 -0.14,0.2 v 0.02 c 0,0 -0.15,0.19 -0.15,0.19 v 0.02 c 0,0 -0.15,0.18 -0.15,0.18 l -0.03,0.03 -0.13,0.18 -0.03,0.03 -0.16,0.21 -0.12,0.16 -0.04,0.04 -0.12,0.16 -0.04,0.05 -0.16,0.21 -0.11,0.15 -0.04,0.06 -0.11,0.15 -0.06,0.07 -0.1,0.13 -0.06,0.08 -0.1,0.13 -0.06,0.08 -0.1,0.12 -0.06,0.09 -0.16,0.21 -0.09,0.12 -0.08,0.09 -0.09,0.11 -0.08,0.1 -0.16,0.21 -0.08,0.1 -0.1,0.12 -0.07,0.09 -0.1,0.12 -0.06,0.09 -0.11,0.13 -0.06,0.08 -0.11,0.14 -0.05,0.07 -0.11,0.14 -0.06,0.07 -0.11,0.15 -0.05,0.06 -0.13,0.16 -0.04,0.05 -0.13,0.16 -0.17,0.22 -0.04,0.04 -0.14,0.18 -0.03,0.03 -0.15,0.18 -0.17,0.22 -0.03,0.03 -0.15,0.19 -0.18,0.22 -0.18,0.22 v 0 c 0,0 -0.17,0.22 -0.17,0.22 l -0.18,-0.22 v 0 c 0,0 -0.18,-0.22 -0.18,-0.22 l -0.18,-0.22 -0.16,-0.19 -0.02,-0.03 -0.18,-0.22 -0.15,-0.18 -0.03,-0.03 -0.14,-0.18 -0.03,-0.04 -0.18,-0.22 -0.13,-0.16 -0.04,-0.05 -0.13,-0.16 -0.05,-0.06 -0.11,-0.15 -0.06,-0.07 -0.11,-0.14 -0.06,-0.07 -0.11,-0.14 -0.06,-0.08 -0.1,-0.13 -0.07,-0.09 -0.1,-0.12 -0.07,-0.09 -0.1,-0.12 -0.08,-0.1 -0.16,-0.21 -0.08,-0.1 -0.08,-0.11 -0.08,-0.09 -0.09,-0.12 -0.16,-0.21 -0.06,-0.09 -0.1,-0.12 -0.06,-0.08 -0.09,-0.13 -0.06,-0.08 -0.1,-0.13 -0.06,-0.07 -0.11,-0.15 -0.04,-0.06 -0.11,-0.15 -0.16,-0.21 -0.04,-0.05 -0.12,-0.16 -0.03,-0.04 -0.13,-0.16 -0.16,-0.21 -0.02,-0.03 -0.13,-0.18 -0.02,-0.03 -0.14,-0.18 v -0.02 c 0,0 -0.15,-0.19 -0.15,-0.19 v -0.02 c 0,0 -0.15,-0.19 -0.15,-0.19 v 0 c 0,0 -0.15,-0.21 -0.15,-0.21 l -0.15,-0.2 v 0 c 0,0 -0.15,-0.21 -0.15,-0.21 l -0.14,-0.19 v -0.02 c 0,0 -0.15,-0.18 -0.15,-0.18 l -0.02,-0.02 -0.15,-0.21 -0.12,-0.17 -0.03,-0.03 -0.12,-0.17 -0.03,-0.04 -0.11,-0.16 -0.03,-0.05 -0.11,-0.16 -0.03,-0.05 -0.15,-0.21 -0.14,-0.2 -0.09,-0.13 -0.05,-0.07 -0.09,-0.13 -0.05,-0.07 -0.14,-0.21 -0.08,-0.11 -0.06,-0.09 -0.08,-0.11 -0.06,-0.09 -0.07,-0.1 -0.06,-0.1 -0.07,-0.1 -0.07,-0.1 -0.07,-0.09 -0.07,-0.1 -0.06,-0.09 -0.08,-0.11 -0.06,-0.08 -0.07,-0.12 -0.06,-0.08 -0.08,-0.12 -0.04,-0.07 -0.09,-0.13 -0.04,-0.07 -0.09,-0.13 -0.04,-0.06 -0.09,-0.14 -0.04,-0.05 -0.09,-0.14 -0.03,-0.05 -0.1,-0.15 -0.13,-0.19 -0.03,-0.04 v 0.52 c 0.59,28.39 -9.83,50.65 -21.6,66.65 -3.25,4.42 -6.6,8.35 -9.86,11.81 -7.13,7.58 -13.79,12.85 -17.84,15.77 h 0.56 c 6.14,-2.08 11.91,-4.27 17.28,-6.55 3.45,-1.46 6.74,-2.97 9.86,-4.51 14.32,-7.08 25,-14.92 31.21,-23.28 6.21,8.36 16.88,16.21 31.21,23.28 7.96,3.94 17.05,7.64 27.14,11.05 h 0.56 c -5.9,-4.25 -17.33,-13.48 -27.7,-27.58 z"
         id="path14" /><path
         class="cls-2"
         d="m 170.53,263.84 c 3.17,1.92 6.46,3.67 9.86,5.22 0.57,0.26 1.14,0.52 1.72,0.77 l 0.17,-0.22 c 0.85,-1.07 1.67,-2.17 2.48,-3.27 0.76,-1.35 1.5,-2.72 2.21,-4.13 -2.29,-1.22 -4.49,-2.6 -6.58,-4.12 -3.65,-2.67 -6.96,-5.78 -9.86,-9.25 -0.92,-1.1 -1.79,-2.25 -2.63,-3.42 0.35,0.63 0.72,1.27 1.09,1.94 -15.98,-19.54 -26.23,-40.21 -26.23,-67.41 0,-27.2 9.57,-52.11 25.51,-71.64 h 0.02 c -20.01,7.6 -36.39,20.36 -49.13,37.14 -1.39,7.08 -2.12,14.39 -2.12,21.87 0,38.18 20.66,76.69 53.48,96.54 z"
         id="path15" /><path
         class="cls-2"
         d="m 322.62,182.42 c 0.09,0.3 0.14,0.6 0.23,0.9 0,-0.02 0.01,-0.03 0.01,-0.05 z"
         id="path16" /><path
         class="cls-2"
         d="m 100.33,183.27 c 0,0 0.01,0.03 0.02,0.05 0.08,-0.3 0.14,-0.6 0.23,-0.9 l -0.24,0.85 z"
         id="path17" /><path
         class="cls-2"
         d="m 180.39,271.95 c 0.55,-0.66 1.09,-1.33 1.63,-2 -0.54,-0.18 -1.08,-0.36 -1.63,-0.55 -3.37,-1.16 -6.66,-2.42 -9.86,-3.79 -35.45,-15.22 -59.95,-43.61 -70.19,-82.29 -2.73,9.74 -4.22,20 -4.22,30.61 0,36.17 16.94,68.38 43.31,89.14 11.51,-5.15 22,-12.17 31.09,-20.67 3.5,-3.27 6.8,-6.77 9.86,-10.45 z"
         id="path18" /></g></g></svg>
